<svg data-v-423bf9ae="" xmlns="http://www.w3.org/2000/svg" viewBox="0 0 658 91" class="iconLeft"><!----><!----><!----><g data-v-423bf9ae="" id="52a097b6-ffee-4bbc-a58e-53260b3ef1e3" fill="black" transform="matrix(4.854368692324311,0,0,4.854368692324311,107.54909686412032,-57.3785906854704)"><path d="M14.59 26.52L14.28 27.15L9.88 27.15L9.88 26.64L11.20 25.61L11.20 18.07L7.52 27.15L6.65 27.15L2.98 17.98L2.98 25.80L4.47 26.52L4.16 27.15L0.81 27.15L0.81 26.64L2.13 25.61L2.13 17.51L0.64 16.76L0.97 16.13L4.19 16.13L7.62 24.71L11.05 16.13L14.43 16.13L14.43 16.63L13.10 17.67L13.10 26.03L14.59 26.52ZM23.74 26.50L23.44 27.13L20.66 27.13L20.66 25.91L19.08 27.16Q18.80 27.27 18.38 27.27L18.38 27.27Q17.15 27.27 16.60 26.66Q16.06 26.05 16.06 25.19L16.06 25.19Q16.06 24.68 16.41 24.19Q16.76 23.69 17.43 23.24L17.43 23.24L20.66 23.24L20.66 22.48Q20.66 20.85 18.91 20.85L18.91 20.85Q18.03 20.85 16.70 21.84L16.70 21.84L16.28 21.25L18.28 19.67Q18.93 19.53 19.68 19.53L19.68 19.53Q21.01 19.53 21.75 20.17Q22.48 20.82 22.48 22.04L22.48 22.04L22.48 26.01L23.74 26.50ZM18.89 25.94Q19.71 25.94 20.66 25.20L20.66 25.20L20.66 23.88L18.23 23.88Q18.06 24.09 17.99 24.30Q17.92 24.51 17.92 24.77L17.92 24.77Q17.92 25.26 18.19 25.60Q18.45 25.94 18.89 25.94L18.89 25.94ZM29.22 21.11Q28.92 21.11 28.60 21.27Q28.28 21.42 27.87 21.83L27.87 21.83L27.87 25.93L29.86 26.52L29.55 27.15L24.81 27.15L24.81 26.64L26.05 25.65L26.05 21.84L24.81 21.10L24.81 20.59L27.30 19.40L27.76 21.10L29.18 19.64Q29.50 19.53 29.93 19.53L29.93 19.53Q30.45 19.53 30.84 19.80Q31.22 20.06 31.42 20.55L31.42 20.55L30.41 21.81L29.81 21.81Q29.75 21.43 29.61 21.27Q29.47 21.11 29.22 21.11L29.22 21.11ZM35 26.05L36.26 26.52L35.94 27.15L31.93 27.15L31.93 26.64L33.18 25.65L33.18 17.22L31.93 16.35L31.93 15.85L34.40 14.91L35 14.91L35 26.05ZM41.05 26.52L40.74 27.15L38.26 27.15L35.70 23.44L38.29 21.28L36.88 20.31L37.18 19.68L40.67 19.68L40.67 20.19L37.48 22.86L39.75 26.03L41.05 26.52ZM49.34 25.23L46.93 27.15Q46.33 27.27 45.47 27.27L45.47 27.27Q44.53 27.27 43.78 26.79Q43.04 26.31 42.61 25.48Q42.18 24.65 42.18 23.65L42.18 23.65Q42.18 22.55 42.85 21.61Q43.51 20.66 44.52 20.10Q45.53 19.53 46.47 19.53L46.47 19.53Q47.82 19.53 48.57 20.59Q49.32 21.66 49.31 23.44L49.31 23.44L44.16 23.44Q44.25 24.56 44.80 25.26Q45.35 25.97 46.28 25.97L46.28 25.97Q47.21 25.97 48.92 24.65L48.92 24.65L49.34 25.23ZM45.67 20.80Q44.23 20.80 44.16 22.79L44.16 22.79L47.31 22.79Q47.18 22.08 47.05 21.69Q46.91 21.29 46.59 21.05Q46.27 20.80 45.65 20.80L45.65 20.80L45.67 20.80ZM61.74 26.49L61.42 27.12L58.73 27.12L55.73 22.18L55.08 21.71L55.31 21.24L56.07 21.24Q56.99 21.24 57.52 20.76Q58.04 20.29 58.04 19.45L58.04 19.45Q58.04 18.35 57.45 17.65Q56.85 16.94 55.71 16.94L55.71 16.94Q54.96 16.94 54.32 17.40L54.32 17.40L54.32 26.01L55.80 26.50L55.50 27.13L51.10 27.13L51.10 26.63L52.42 25.59L52.42 17.22L50.93 16.76L51.25 16.13L53.02 16.13Q54.29 16.13 55.50 16.04L55.50 16.04Q56.39 15.99 56.81 15.99L56.81 15.99Q57.78 15.99 58.53 16.37Q59.29 16.74 59.70 17.40Q60.12 18.05 60.12 18.82L60.12 18.82Q60.12 19.50 59.69 20.13Q59.26 20.76 58.56 21.24Q57.86 21.71 57.08 21.97L57.08 21.97L58.03 22.27L60.12 25.72L61.74 26.49ZM69.83 25.23L67.42 27.15Q66.82 27.27 65.97 27.27L65.97 27.27Q65.03 27.27 64.28 26.79Q63.53 26.31 63.10 25.48Q62.68 24.65 62.68 23.65L62.68 23.65Q62.68 22.55 63.34 21.61Q64.01 20.66 65.02 20.10Q66.02 19.53 66.96 19.53L66.96 19.53Q68.32 19.53 69.07 20.59Q69.82 21.66 69.80 23.44L69.80 23.44L64.65 23.44Q64.75 24.56 65.30 25.26Q65.84 25.97 66.78 25.97L66.78 25.97Q67.70 25.97 69.41 24.65L69.41 24.65L69.83 25.23ZM66.16 20.80Q64.72 20.80 64.65 22.79L64.65 22.79L67.80 22.79Q67.68 22.08 67.54 21.69Q67.41 21.29 67.09 21.05Q66.77 20.80 66.15 20.80L66.15 20.80L66.16 20.80ZM79.06 19.67L79.06 20.17L75.52 27.13L74.31 27.13L72.14 21.85L70.83 21.08L70.83 20.58L73.36 19.40L73.89 21.52L75.57 25.59L77.49 21.66L75.60 20.30L75.91 19.67L79.06 19.67ZM84.04 26.50L83.72 27.13L79.72 27.13L79.72 26.63L80.96 25.63L80.96 21.71L79.72 20.86L79.72 20.36L82.18 19.40L82.78 19.40L82.78 26.04L84.04 26.50ZM81.82 15.20Q82.28 15.20 82.57 15.53Q82.87 15.86 82.87 16.34L82.87 16.34Q82.87 16.67 82.66 16.98Q82.45 17.28 82.12 17.45Q81.80 17.63 81.49 17.63L81.49 17.63Q81.05 17.63 80.75 17.30Q80.46 16.98 80.46 16.49L80.46 16.49Q80.46 16.16 80.67 15.86Q80.88 15.55 81.20 15.38Q81.52 15.20 81.82 15.20L81.82 15.20ZM92.58 25.23L90.17 27.15Q89.57 27.27 88.72 27.27L88.72 27.27Q87.78 27.27 87.03 26.79Q86.28 26.31 85.85 25.48Q85.43 24.65 85.43 23.65L85.43 23.65Q85.43 22.55 86.09 21.61Q86.76 20.66 87.77 20.10Q88.77 19.53 89.71 19.53L89.71 19.53Q91.07 19.53 91.82 20.59Q92.57 21.66 92.55 23.44L92.55 23.44L87.40 23.44Q87.50 24.56 88.05 25.26Q88.59 25.97 89.53 25.97L89.53 25.97Q90.45 25.97 92.16 24.65L92.16 24.65L92.58 25.23ZM88.91 20.80Q87.47 20.80 87.40 22.79L87.40 22.79L90.55 22.79Q90.43 22.08 90.29 21.69Q90.16 21.29 89.84 21.05Q89.52 20.80 88.90 20.80L88.90 20.80L88.91 20.80ZM105.78 19.68L105.78 20.19L102.63 27.15L101.43 27.15L100.02 23.69L98.27 27.15L97.06 27.15L94.89 21.87L93.58 21.10L93.58 20.59L96.11 19.42L96.64 21.53L98.32 25.59L99.65 22.78L99.27 21.85L97.96 21.08L97.96 20.58L100.49 19.40L101.02 21.52L102.66 25.48L104.30 21.71L102.33 20.30L102.63 19.67L105.78 19.68ZM111.43 25.56Q111.43 25.20 111.01 24.89Q110.59 24.57 109.72 24.11L109.72 24.11Q108.98 23.72 108.53 23.44Q108.09 23.16 107.78 22.79Q107.46 22.41 107.46 21.97L107.46 21.97Q107.46 21.46 107.90 20.89Q108.33 20.31 108.97 19.92Q109.61 19.53 110.14 19.53L110.14 19.53Q110.80 19.53 111.66 19.69Q112.53 19.85 112.92 20.05L112.92 20.05L112.92 22.25L112.32 22.25Q111.89 21.42 111.31 20.95Q110.74 20.48 110.12 20.48L110.12 20.48Q109.72 20.48 109.47 20.70Q109.23 20.92 109.23 21.24L109.23 21.24Q109.23 21.64 109.66 21.97Q110.10 22.29 111.01 22.78L111.01 22.78Q111.72 23.14 112.15 23.42Q112.59 23.69 112.90 24.05Q113.20 24.40 113.20 24.84L113.20 24.84Q113.20 25.35 112.75 25.92Q112.29 26.49 111.64 26.88Q110.99 27.27 110.45 27.27L110.45 27.27Q109.75 27.27 108.77 27.10Q107.80 26.94 107.39 26.75L107.39 26.75L107.39 24.54L108.00 24.54Q108.47 25.38 109.13 25.85Q109.79 26.32 110.46 26.32L110.46 26.32Q110.89 26.32 111.16 26.10Q111.43 25.87 111.43 25.56L111.43 25.56Z"></path></g><!----><g data-v-423bf9ae="" id="aabd0613-5a8f-45b9-bdbc-69342e072b04" transform="matrix(1.0000005086263022,0,0,1.0000005086263022,-4.327952067098039,-4.000048319510341)" stroke="none" fill="black"><path clip-rule="evenodd" d="M50.328 95a44.794 44.794 0 01-25.434-7.88L8.345 89.155c-2.749.348-4.289-1.511-3.439-4.147l4.908-15.403A44.82 44.82 0 015.328 50c0-24.854 20.147-45 45-45s45 20.147 45 45-20.147 45-45 45zm28.311-52.538l-14.713-5.255-5.656-14.846c-1.071-2.837-3.655-3.376-5.771-1.206L41.29 32.577 26.411 31.55c-3.024-.218-4.598 1.901-3.515 4.733l6.301 16.641-4.764 14.947c-.93 2.886.755 4.919 3.763 4.538l17.378-2.138 15.068 8.918c2.605 1.552 4.963.365 5.267-2.651l1.62-15.606 12.436-12.726c2.127-2.161 1.532-4.733-1.326-5.744z"></path></g><!----></svg>